<svg width="64" height="52" viewBox="0 0 64 52" fill="none" xmlns="http://www.w3.org/2000/svg">
<path d="M32.1069 23.4628C32.8094 26.0475 34.0683 28.8459 35.5981 31.6337C37.4668 35.0388 39.7553 38.4598 41.9722 41.5038C44.1897 44.5487 46.341 47.2226 47.937 49.1356C48.7275 50.0831 49.3822 50.8445 49.8423 51.3719H14.4185C14.8835 50.8368 15.5486 50.0608 16.3521 49.0936C17.9619 47.1558 20.1293 44.4481 22.3579 41.37C24.5857 38.293 26.8802 34.8393 28.7407 31.4091C30.2114 28.6975 31.4199 25.9796 32.1069 23.4628ZM29.7573 20.7137H31.5337L31.6147 21.1678L28.3442 24.5253C21.9296 31.1133 13.1762 34.8387 4.07959 34.8387H1.82471L5.49463 31.0253L5.49365 31.0243C11.9081 24.4374 20.6615 20.7138 29.7573 20.7137ZM34.2427 20.7137C43.4283 20.7138 52.1796 24.4398 58.5044 31.0243V31.0253L62.1753 34.8387H59.9204C51.0213 34.8387 42.5293 31.3416 36.2563 25.2147L35.6558 24.6141L32.5825 21.3651L32.5659 21.3475L32.6704 20.7137H34.2427ZM32.0581 20.7137L32.0112 20.7606L31.9663 20.7137H32.0581Z" stroke="#7E1C1C"/>
<path d="M30.1089 9.98535H31.7974L31.5972 10.1924L28.8706 13.0068L28.8677 13.0098C23.6858 18.4507 16.4301 21.5604 8.9165 21.5605H7.25244L10.1538 18.4502L10.1548 18.4512C15.4247 13.0085 22.5937 9.98544 30.1089 9.98535ZM33.8022 9.98535C41.0851 9.98535 48.1218 12.8236 53.2632 17.9453L53.7544 18.4482L56.6411 21.4727H54.9956C47.478 21.4726 40.2236 18.4478 35.0444 13.0098L35.0415 13.0068L32.3149 10.1924L32.1138 9.98535H33.8022Z" stroke="#7E1C1C"/>
<path d="M30.4612 1.01562H31.6282L31.5959 1.04883L29.3967 3.33496C25.1821 7.72154 19.3325 10.2168 13.2249 10.2168H12.0979L14.2883 7.89648L14.2893 7.89746C18.5039 3.51082 24.3535 1.01562 30.4612 1.01562ZM33.4504 1.01562C39.5578 1.01562 45.4077 3.51018 49.6223 7.89648L51.8137 10.2168H50.6868C44.5791 10.2168 38.7295 7.72159 34.5149 3.33496L32.3167 1.04883L32.2844 1.01562H33.4504Z" stroke="#7E1C1C"/>
</svg>
